<svg xmlns="http://www.w3.org/2000/svg" data-name="Layer 1" viewBox="0 0 512 512"><path d="M70.17,507.45a16.77,16.77,0,0,1-16.76-16.77V340.09a33.57,33.57,0,0,1,33.53-33.53H425.06a33.57,33.57,0,0,1,33.53,33.53V440.42a16.77,16.77,0,1,1-33.53,0V340.09H86.94V490.68A16.77,16.77,0,0,1,70.17,507.45Z"/><path d="M382.59,340.09a16.76,16.76,0,0,1-16.76-16.76V196.09H146.17V323.33a16.76,16.76,0,0,1-33.52,0V196.09a33.56,33.56,0,0,1,33.52-33.53H365.83a33.56,33.56,0,0,1,33.52,33.53V323.33A16.76,16.76,0,0,1,382.59,340.09Z"/><path d="M256,196.09a16.76,16.76,0,0,1-16.76-16.77V126.83a16.76,16.76,0,1,1,33.52,0v52.49A16.76,16.76,0,0,1,256,196.09Z"/><path d="M256 143.59a16.72 16.72 0 01-11.85-4.91l-47.1-47.09A50.9 50.9 0 01256 10.11 50.79 50.79 0 01315 19.37h0a51.06 51.06 0 010 72.22l-47.1 47.09A16.72 16.72 0 01256 143.59zM232.84 38.1a17 17 0 00-12.08 5 17.53 17.53 0 000 24.8L256 103.12l35.24-35.24a17.53 17.53 0 000-24.8h0a17.4 17.4 0 00-24-.36 16.76 16.76 0 01-22.48 0A17.76 17.76 0 00232.84 38.1zM478.53 507.45H33.47a16.77 16.77 0 010-33.53H478.53a16.77 16.77 0 010 33.53zM70.18 444.48a16.77 16.77 0 01-11.11-29.33L86.6 390.82a64.07 64.07 0 0178.44-5l10.9 7.39a30.56 30.56 0 0037.42-2.38 64.06 64.06 0 0178.44-5l10.9 7.39a30.54 30.54 0 0037.41-2.39 64.07 64.07 0 0178.44-5L451.24 408a16.76 16.76 0 11-18.83 27.74l-32.68-22.18A30.56 30.56 0 00362.31 416a64.09 64.09 0 01-78.44 5l-10.9-7.4A30.55 30.55 0 00235.56 416a64.09 64.09 0 01-78.44 5l-10.91-7.4A30.55 30.55 0 00108.8 416L81.27 440.27A16.7 16.7 0 0170.18 444.48zM129.42 279.54a16.76 16.76 0 01-10.65-29.72l18.76-15.4a51.12 51.12 0 0159-3.56l7.43 4.68a17.46 17.46 0 0019.89-1.11 51.11 51.11 0 0159-3.57l7.43 4.68a17.44 17.44 0 0019.88-1.11 51.13 51.13 0 0159-3.57l22.27 14a16.76 16.76 0 11-17.88 28.36l-22.27-14a17.42 17.42 0 00-19.88 1.12 51.12 51.12 0 01-59 3.56L265 259.22a17.42 17.42 0 00-19.88 1.12 51.12 51.12 0 01-59 3.56l-7.43-4.68a17.42 17.42 0 00-19.88 1.12l-18.75 15.39A16.71 16.71 0 01129.42 279.54z"/></svg>