<svg xmlns="http://www.w3.org/2000/svg" enable-background="new 0 0 80 80" viewBox="0 0 80 80"><path d="M31.1080933,68.1829834c0-0.3858643,0.3128052-0.6987305,0.6987305-0.6987305h16.3863525
	c0.3859253,0,0.6987305,0.3128662,0.6987305,0.6987305v0.5709839c0,0.3859253-0.3128052,0.6987305-0.6987305,0.6987305H31.8068237
	c-0.3859253,0-0.6987305-0.3128052-0.6987305-0.6987305V68.1829834z M31.8068237,65.3519287h16.3863525
	c0.3859253,0,0.6987305-0.3128052,0.6987305-0.6987305v-0.5709839c0-0.3858643-0.3128052-0.6987305-0.6987305-0.6987305H31.8068237
	c-0.3859253,0-0.6987305,0.3128662-0.6987305,0.6987305v0.5709839
	C31.1080933,65.0391235,31.4208984,65.3519287,31.8068237,65.3519287z M30.7744751,71.8079224
	C32.5014038,75.1437988,35.9841919,77.4237671,40,77.4237671s7.4985962-2.2799683,9.2255249-5.6158447
	c0.0418091-0.0807495-0.0165405-0.1772461-0.1074219-0.1772461H30.881897
	C30.7910156,71.6306763,30.732666,71.7271729,30.7744751,71.8079224z M39.977356,19.0087891
	c4.5543823,0,9.0761108,1.5845947,12.7320557,4.4619141c1.8195801,1.4320068,3.3665771,3.1317749,4.5982056,5.052063
	c1.2766724,1.9907227,2.1776123,4.1644897,2.6776733,6.4609985c0.7045898,3.2355957,0.7182007,6.3562622,0.0405273,9.2753906
	c-0.6784668,2.9223633-2.0682983,5.7224731-4.1309204,8.3225708c-0.6803589,0.857605-1.3617554,1.7143555-2.0431519,2.5710449
	c-1.3703003,1.7227783-2.7871704,3.5041504-4.171814,5.2642822c-0.1594238,0.2026367-0.2425537,0.2332153-0.4458008,0.2332153
	H49.225769c-1.7556152-0.0115967-3.484375-0.0131226-4.7943726-0.0131226c-0.7328491,0-1.4656982,0.0005493-2.1985474,0.0010986
	c-0.7324219,0.0005493-1.4649048,0.0010376-2.1974487,0.0010376h-0.0374756c-0.7218628,0-1.4437256-0.0003662-2.1655884-0.0006714
	c-0.7304688-0.0003662-1.4609375-0.0007935-2.1914063-0.0007935c-1.3323975,0-3.0900269,0.0010986-4.869812,0.0093384
	l-0.0078125,0.000061c-0.2331543,0-0.2970581-0.0390625-0.4105225-0.1834106
	c-1.1871338-1.5090332-2.4024048-3.0356445-3.5776367-4.512085c-0.927063-1.1644897-1.8856201-2.3687134-2.8238525-3.5560303
	c-1.1546631-1.4612427-2.1044922-3.0473022-2.8230591-4.7141724c-0.6903076-1.6010742-1.1712036-3.2849121-1.4295654-5.0048828
	c-0.4987793-3.3210449-0.1602783-6.7684937,0.9789429-9.9695435c1.1417236-3.2080688,3.0634766-6.1016235,5.5574951-8.3678589
	c1.2915039-1.1735229,2.7333374-2.1781006,4.2854004-2.9856567c1.6159668-0.8408813,3.3603516-1.4723511,5.1847534-1.8770142
	C37.1049805,19.1661377,38.5422974,19.0087891,39.977356,19.0087891z M40.0633545,21.7133789
	c-3.8549805,0-7.5748291,1.2365723-10.7573853,3.5760498c-7.581604,5.5731812-9.4008789,16.7462769-3.9725952,24.3984375
	c1.2124634,1.7092285,2.5474854,3.3571167,3.838623,4.9507446c0.7380371,0.9110718,1.5012207,1.8530884,2.2297974,2.7923584
	c0.3844604,0.4956055,0.8842163,0.4956055,1.15271,0.4956055h0.0131226c1.1008911-0.001709,2.295166-0.0025024,3.7585449-0.0025024
	c0.8512573,0,1.7024536,0.0003052,2.5536499,0.0005493l1.1102295,0.0003052c0.5874634,0,1.1748047-0.0002441,1.762146-0.0005493
	c0.5871582-0.0002441,1.1743774-0.0004883,1.7614746-0.0004883c1.0663452,0,2.4729614,0.0007324,3.897522,0.0065918h0.0109253
	c0.3355103,0,0.8285522-0.0597534,1.2346191-0.5762329c0.6437988-0.8187256,1.3094482-1.6450806,1.953125-2.4442139
	c1.1430664-1.4190063,2.3250122-2.8862915,3.4363403-4.3747559c4.2504272-5.6923828,4.9977417-11.8009644,2.2210693-18.1559448
	C53.3927612,25.800354,47.1837769,21.7133789,40.0633545,21.7133789z M40.5718994,49.5726318V30.0863647
	c0-1.3829956,1.1211548-2.5041504,2.5042114-2.5041504c2.4033813,0,4.3995361,1.7766724,4.7440796,4.0856323
	c1.6630859,0.3400269,2.9182129,1.8145142,2.9182129,3.5765991v0.4629517
	c1.3179321,0.3477783,2.2925415,1.5501709,2.2925415,2.9758301v2.2924805c0,1.4256592-0.9746094,2.6280518-2.2925415,2.9758911
	v0.4628906c0,1.762085-1.255127,3.2366333-2.9182129,3.5766602c-0.3445435,2.309021-2.3406982,4.0856934-4.7440796,4.0856934
	C41.6930542,52.0768433,40.5718994,50.9556885,40.5718994,49.5726318z M42.1415405,49.5726318
	c0,0.5161743,0.418457,0.9346313,0.9346313,0.9346313c1.3731079,0,2.5481567-0.8622437,3.0133057-2.0736694
	c0.0709839-0.1848145-0.067749-0.3833008-0.2657471-0.3833008h-0.8165283c-0.4334717,0-0.78479-0.3513794-0.78479-0.78479
	s0.3513184-0.78479,0.78479-0.78479h2.0808105v0.0147095c1.1473999,0,2.0808716-0.9334717,2.0808716-2.0808716v-1.3618774
	c0-0.3143921,0.2548218-0.5692139,0.5691528-0.5692139h0.2155762c0.8327026,0,1.5077515-0.6749878,1.5077515-1.5076904v-2.2924805
	c0-0.7333374-0.5264282-1.3458252-1.2211304-1.4800415v0.015625H48.357666c-0.5842896,0-1.0579834,0.4736938-1.0579834,1.0579834
	v0.8112183c0,0.4334106-0.3513794,0.78479-0.78479,0.78479s-0.78479-0.3513794-0.78479-0.78479v-1.4129028
	c0-1.1188354,0.9070435-2.0258789,2.0258789-2.0258789h1.2105103c0.1117554,0,0.2023926-0.0905762,0.2023926-0.2023926
	c0-1.2609863-1.0222778-2.2832642-2.2832642-2.2832642h-1.878418c-0.4334717,0-0.78479-0.3513184-0.78479-0.784729
	c0-0.4334717,0.3513184-0.78479,0.78479-0.78479h0.5855713c0.3203735,0,0.5263672-0.3358154,0.3860474-0.6238403
	c-0.5239258-1.0755615-1.6279907-1.8184814-2.9026489-1.8184814c-0.5161743,0-0.9346313,0.418396-0.9346313,0.9345703V49.5726318z
	 M29.2615967,35.2444458c0-1.762085,1.255127-3.2365723,2.9182129-3.5765991
	c0.3445435-2.30896,2.3406982-4.0856323,4.7440796-4.0856323c1.3830566,0,2.5042114,1.1211548,2.5042114,2.5041504v19.4862671
	c0,1.3830566-1.1211548,2.5042114-2.5042114,2.5042114c-2.4033813,0-4.3995361-1.7766724-4.7440796-4.0856934
	c-1.6630859-0.3400269-2.9182129-1.8145752-2.9182129-3.5766602v-0.4628906
	c-1.3179321-0.3478394-2.2925415-1.5502319-2.2925415-2.9758911v-2.2924805c0-1.4256592,0.9746094-2.6280518,2.2925415-2.9758301
	V35.2444458z M29.7597656,37.2188721v-0.015625c-0.6947021,0.1342163-1.2211304,0.7467041-1.2211304,1.4800415v2.2924805
	c0,0.8327026,0.6750488,1.5076904,1.5077515,1.5076904h0.2155762c0.3143311,0,0.5691528,0.2548218,0.5691528,0.5692139v1.3618774
	c0,1.1473999,0.9334717,2.0808716,2.0808716,2.0808716v-0.0147095h2.0808105c0.4334717,0,0.78479,0.3513794,0.78479,0.78479
	s-0.3513184,0.78479-0.78479,0.78479h-0.8165283c-0.197998,0-0.336731,0.1984863-0.2657471,0.3833008
	c0.4651489,1.2114258,1.6401978,2.0736694,3.0133057,2.0736694c0.5161743,0,0.9346313-0.418457,0.9346313-0.9346313V30.0863647
	c0-0.5161743-0.418457-0.9345703-0.9346313-0.9345703c-1.2746582,0-2.3787231,0.7429199-2.9026489,1.8184814
	c-0.1403198,0.2880249,0.0656738,0.6238403,0.3860474,0.6238403h0.5855713c0.4334717,0,0.78479,0.3513184,0.78479,0.78479
	c0,0.4334106-0.3513184,0.784729-0.78479,0.784729h-1.878418c-1.2609863,0-2.2832642,1.0222778-2.2832642,2.2832642
	c0,0.1118164,0.0906372,0.2023926,0.2023926,0.2023926h1.2105103c1.1188354,0,2.0258789,0.9070435,2.0258789,2.0258789v1.4129028
	c0,0.4334106-0.3513794,0.78479-0.78479,0.78479s-0.78479-0.3513794-0.78479-0.78479v-0.8112183
	c0-0.5842896-0.4736938-1.0579834-1.0579834-1.0579834H29.7597656z M37.4848633,3.7642822v8.9804077
	c0,0.6551514,0.53302,1.1881104,1.1881104,1.1881104c0.6551514,0,1.1881714-0.532959,1.1881714-1.1881104V3.7642822
	c0-0.6550903-0.53302-1.1881104-1.1881714-1.1881104C38.0178833,2.5761719,37.4848633,3.1091919,37.4848633,3.7642822z
	 M25.6289673,18.1399536c0.206665,0,0.411438-0.0551758,0.5921631-0.1595459
	c0.5673828-0.3275146,0.7624512-1.055603,0.4348755-1.6229858l-4.4901733-7.7772827
	c-0.2116699-0.3665771-0.6066284-0.5943604-1.0308228-0.5943604c-0.206665,0-0.411438,0.0551147-0.5921631,0.1594849
	c-0.5673828,0.3275757-0.7624512,1.0556641-0.4349365,1.6230469l4.4902344,7.7772217
	C24.8098145,17.9121704,25.2047729,18.1399536,25.6289673,18.1399536z M15.8383179,28.1465454
	c0.1807251,0.1043701,0.385498,0.1595459,0.5922241,0.1595459c0.4241333,0,0.8190918-0.2277832,1.0307617-0.5944214
	c0.1586914-0.2748413,0.2008667-0.5950317,0.1187134-0.9015503s-0.2787476-0.5627441-0.5535889-0.7214355l-7.7772217-4.4901733
	c-0.1807861-0.1043701-0.3855591-0.1595459-0.5922241-0.1595459c-0.4241333,0-0.8191528,0.2277222-1.0308228,0.5944214
	c-0.3275757,0.5673218-0.1324463,1.2954102,0.4348755,1.6229858L15.8383179,28.1465454z M3.3840942,40.519104
	c0,0.6550903,0.532959,1.1881104,1.1881104,1.1881104h8.9804077c0.6550903,0,1.1881104-0.53302,1.1881104-1.1881104
	c0-0.6551514-0.53302-1.1881104-1.1881104-1.1881104H4.5722046C3.9170532,39.3309937,3.3840942,39.8639526,3.3840942,40.519104z
	 M75.4277954,36.7078247h-8.9804077c-0.6550903,0-1.1881104,0.53302-1.1881104,1.1881104
	c0,0.6551514,0.53302,1.1881714,1.1881104,1.1881714h8.9804077c0.6551514,0,1.1881104-0.53302,1.1881104-1.1881714
	C76.6159058,37.2408447,76.0829468,36.7078247,75.4277954,36.7078247z M70.0160522,19.1405029
	c-0.2067261,0-0.411499,0.0551758-0.5922241,0.1595459l-7.7772827,4.4901733
	c-0.5673218,0.3275757-0.7624512,1.0556641-0.4348755,1.6230469c0.2116699,0.3666382,0.6066895,0.5943604,1.0308228,0.5943604
	c0.206665,0,0.411438-0.0551147,0.5921631-0.1594849l7.7772827-4.4902344
	c0.2748413-0.1586304,0.4714355-0.414856,0.5535889-0.7214355c0.0821533-0.3065186,0.039978-0.626709-0.1187134-0.9015503
	C70.835144,19.3682861,70.4401855,19.1405029,70.0160522,19.1405029z M52.0726318,16.8129272
	c0.4241333,0,0.8191528-0.2277832,1.0308228-0.5943604l4.4901733-7.7772827
	c0.3275757-0.5673828,0.1324463-1.2954102-0.4348755-1.6229858c-0.1807861-0.1043701-0.3855591-0.1595459-0.5922241-0.1595459
	c-0.4241333,0-0.8190918,0.2277832-1.0308228,0.5944214l-4.4901733,7.7772217
	c-0.3275757,0.5673828-0.1324463,1.2954712,0.4348755,1.6230469C51.6611938,16.7578125,51.8659668,16.8129272,52.0726318,16.8129272
	z"/></svg>