<svg xmlns="http://www.w3.org/2000/svg" viewBox="0 0 64 64"><path d="M46 57a3 3 0 0 1-3 3H7a3 3 0 0 1-3-3V7a3 3 0 0 1 3-3h31v5a3 3 0 0 0 3 3h5v21h2V11a1 1 0 0 0-.293-.707l-8-8A1 1 0 0 0 39 2H7a5.006 5.006 0 0 0-5 5v50a5.006 5.006 0 0 0 5 5h36a5.006 5.006 0 0 0 5-5v-4h-2ZM40 9V5.414L44.586 10H41a1 1 0 0 1-1-1Z"/><path d="M8 8h2v2H8zM12 8h6v2h-6zM8 12h10v2H8zM60.87 29.13a5.006 5.006 0 0 0-7.071 0L36.121 46.808a1 1 0 0 0-.273.51l-.648 3.239-1.907 1.907a3 3 0 1 0 4.242 4.243l1.908-1.907 3.239-.648a1 1 0 0 0 .51-.274L60.87 36.2a5.006 5.006 0 0 0 0-7.07zM37.207 50.722l.471-2.358 3.957 3.957-2.357.472zm1.742-3.914L50.97 34.786l1.415 1.414-12.021 12.022zm2.829 2.828L53.8 37.615l1.414 1.415-12.022 12.02zm10.607-16.264.707-.707 4.243 4.243-.708.708zM36.12 55.293a1.023 1.023 0 0 1-1.413 0 1 1 0 0 1 0-1.415l1.414-1.414 1.415 1.415zm23.336-20.506-.707.707-4.243-4.243.707-.707a3 3 0 1 1 4.243 4.243zM43.09 30.61a1.008 1.008 0 0 0 0-1.42l-9.9-9.9a1.034 1.034 0 0 0-1.41 0l-2.62 2.62-1.53.3-2.92-2.92A1.033 1.033 0 0 0 24 19h-3.83l-2.53-2.54a1.008 1.008 0 0 0-1.42 0l-9.9 9.9a1.008 1.008 0 0 0 0 1.42l7.2 7.2a2.973 2.973 0 0 0 2.55 4.27 2.906 2.906 0 0 0 .86 1.96 2.964 2.964 0 0 0 1.96.87 2.983 2.983 0 0 0 2.83 2.83 3 3 0 0 0 5.11 1.96l1.06 1.06a2.994 2.994 0 0 0 4.24 0 2.91 2.91 0 0 0 .86-1.97 2.944 2.944 0 0 0 2.83-2.82 2.963 2.963 0 0 0 2.83-2.83 2.993 2.993 0 0 0 1.97-5.11l-1.06-1.06zM8.44 27.07l8.49-8.48L18.34 20l-8.48 8.49zm2.83 2.83 8.9-8.9h3.42l7.83 7.84a.978.978 0 0 1 0 1.41 1.014 1.014 0 0 1-1.41 0l-4.24-4.24a1.037 1.037 0 0 0-1.42 0 3.066 3.066 0 0 1-4.24 0l-1.41 1.41a5.076 5.076 0 0 0 1.23.89l-5.12 5.13zm15.2 12.37a3.008 3.008 0 0 0-.76 2.89l-.3.29a.972.972 0 0 1-.71.29.951.951 0 0 1-.7-.29.993.993 0 0 1-.01-1.4.01.01 0 0 0 .01-.01l2.83-2.82v-.01l-1.42-1.41-2.83 2.83c-.01 0-.01 0-.01.01a1.032 1.032 0 0 1-1.4-.01 1.014 1.014 0 0 1 0-1.42L24 38.38l-1.41-1.41-2.83 2.83a1 1 0 1 1-1.42-1.42l2.83-2.82-1.41-1.42-2.83 2.83a1.027 1.027 0 0 1-1.42 0 1 1 0 0 1 0-1.41l6.67-6.68c.02 0 .03.01.05.01a4.949 4.949 0 0 0 2.76-.83l3.61 3.61a3.075 3.075 0 0 0 4.24 0 3 3 0 0 0 .06-4.18l5.25 5.24-.3.29a3.007 3.007 0 0 0-2.89.77 2.906 2.906 0 0 0-.86 1.96 2.961 2.961 0 0 0-2.83 2.86 2.907 2.907 0 0 0-2.83 2.8 3.046 3.046 0 0 0-1.97.86zm4.25 4.25a1.037 1.037 0 0 1-1.42 0l-1.41-1.42a1 1 0 1 1 1.41-1.41l1.42 1.41a1.008 1.008 0 0 1 0 1.42zm2.83-2.83a1.008 1.008 0 0 1-1.42 0l-1.41-1.42a1 1 0 0 1 0-1.41 1 1 0 0 1 1.41 0l1.42 1.41a1.014 1.014 0 0 1 0 1.42zm2.82-2.83a1.014 1.014 0 0 1-1.41 0l-1.41-1.42a.96.96 0 0 1-.3-.7 1.007 1.007 0 0 1 1-1 1.024 1.024 0 0 1 .71.29l1.41 1.42a1 1 0 0 1 0 1.41zm2.83-2.83a1 1 0 0 1-1.41 0l-1.42-1.41a1.008 1.008 0 0 1 0-1.42 1.042 1.042 0 0 1 .71-.29 1.024 1.024 0 0 1 .71.29l1.41 1.42a.978.978 0 0 1 0 1.41zm-8.13-15.2 1.42-1.42 8.48 8.49-1.41 1.41zM21 54h10v2H21zM8 44h8v2H8zM8 48h10v2H8zM8 40h6v2H8z"/></svg>