<svg xmlns="http://www.w3.org/2000/svg" enable-background="new 0 0 512 512" viewBox="0 0 512 512"><linearGradient id="a" x1="26.778" x2="485.222" y1="26.778" y2="485.222" gradientTransform="matrix(1 0 0 -1 0 512)" gradientUnits="userSpaceOnUse"><stop offset="0" stop-color="#0095da"/><stop offset=".5" stop-color="#00aeee"/><stop offset="1" stop-color="#2bc4f3"/></linearGradient><path fill="url(#a)" d="M447.265,0H64.735C49.829,0,37.696,12.133,37.696,27.039c0,102.01,0,363.817,0,457.921
		c0,14.906,12.133,27.039,27.039,27.039h382.53c14.906,0,27.039-12.133,27.039-27.039c0-94.143,0-356.126,0-457.921
		C474.304,12.133,462.171,0,447.265,0z M53.695,27.039C53.695,20.954,58.648,16,64.734,16h382.531
		c6.086,0,11.039,4.953,11.039,11.039v67.594c-92.959,0-158.866,0-253.133,0c-3.828-23.039-23.89-40.656-47.992-40.656h-45.984
		c-24.381,0-44.254,17.81-48,40.656h-9.5C53.695,94.633,53.695,27.039,53.695,27.039z M458.305,484.961
		c0,6.086-4.953,11.039-11.039,11.039H64.735c-6.086,0-11.039-4.953-11.039-11.039V110.633c1.071,0,17.673,0,16.851,0
		c4.422,0,8-3.578,8-8c0-18.043,14.574-32.656,32.649-32.656h45.984c18,0,32.649,14.649,32.649,32.656c0,4.422,3.578,8,8,8
		c67.385,0,196.961,0,260.476,0V484.961z M104.508,95.93c0-4.422,3.578-8,8-8h46.461c4.422,0,8,3.578,8,8s-3.578,8-8,8h-46.461
		C108.086,103.93,104.508,100.352,104.508,95.93z M338.375,55.313c0-4.422,3.578-8,8-8h6.141c4.422,0,8,3.578,8,8s-3.578,8-8,8
		h-6.141C341.953,63.312,338.375,59.735,338.375,55.313z M377.273,55.313c0-4.422,3.578-8,8-8h6.141c4.422,0,8,3.578,8,8
		s-3.578,8-8,8h-6.141C380.852,63.312,377.273,59.735,377.273,55.313z M416.164,55.313c0-4.422,3.578-8,8-8h6.141
		c4.422,0,8,3.578,8,8s-3.578,8-8,8h-6.141C419.742,63.312,416.164,59.735,416.164,55.313z M81.915,192.968v92.664
		c0,17.649,14.351,32,32,32h284.172c17.649,0,32-14.351,32-32v-92.664c0-17.649-14.351-32-32-32H113.915
		C96.266,160.969,81.915,175.321,81.915,192.968z M414.086,192.968v92.664c0,8.821-7.18,16-16,16H113.915c-8.821,0-16-7.18-16-16
		v-92.664c0-8.821,7.18-16,16-16h284.172C406.906,176.969,414.086,184.149,414.086,192.968z M120.359,252.984c0-4.422,3.578-8,8-8
		c4.422,0,8,3.578,8,8c0,4.875,3.961,8.844,8.836,8.844c4.875,0,8.844-3.968,8.844-8.844v-44.204c0-4.422,3.578-8,8-8
		c4.422,0,8,3.578,8,8v44.204c0,13.695-11.148,24.844-24.844,24.844C131.5,277.828,120.359,266.68,120.359,252.984z M210.898,277.82
		c13.437,0,24.367-10.937,24.367-24.375V225.14c0-13.437-10.93-24.375-24.367-24.375c-13.437,0-24.375,10.937-24.375,24.375v28.305
		C186.524,266.883,197.461,277.82,210.898,277.82z M202.523,225.141c0-4.617,3.758-8.375,8.375-8.375
		c4.617,0,8.367,3.757,8.367,8.375v28.305c0,4.617-3.75,8.375-8.367,8.375c-4.617,0-8.375-3.757-8.375-8.375V225.141z
		 M257.281,277.836h19.336c12.812,0,23.234-10.43,23.234-23.243c0-5.887-2.254-11.209-5.848-15.318
		c3.594-4.092,5.848-9.391,5.848-15.252c0-12.812-10.422-23.243-23.234-23.243h-19.336c-4.422,0-8,3.578-8,8
		c0,2.099,0,64.912,0,61.055C249.281,274.258,252.859,277.836,257.281,277.836z M276.617,261.836H265.28v-14.578h11.336
		c3.992,0,7.235,3.289,7.235,7.336C283.852,258.586,280.609,261.836,276.617,261.836z M265.281,216.781h11.336
		c3.992,0,7.235,3.25,7.235,7.242c0,3.992-3.243,7.235-7.235,7.235h-11.336V216.781z M348.367,267.781l12.713-12.713
		c10.159,4.92,21.11,2.337,28.092-4.624c0-0.008,0-0.008,0.008-0.008c9.578-9.593,9.578-25.196-0.008-34.773
		c-9.602-9.602-25.187-9.586-34.773,0c-7.596,7.596-9.071,18.929-4.631,28.092l-12.712,12.713c-3.125,3.125-3.125,8.187,0,11.312
		C340.18,270.906,345.242,270.906,348.367,267.781z M365.711,226.976c3.35-3.35,8.811-3.337,12.149,0
		c3.343,3.343,3.343,8.797,0,12.149c-3.406,3.406-8.742,3.406-12.149,0C362.359,235.773,362.359,230.328,365.711,226.976z
		 M384.039,379.976c0,4.422-3.578,8-8,8H135.961c-4.422,0-8-3.578-8-8s3.578-8,8-8h240.078
		C380.461,371.977,384.039,375.554,384.039,379.976z M264,439.046c0,4.422-3.578,8-8,8H135.961c-4.422,0-8-3.578-8-8
		c0-4.422,3.578-8,8-8H256C260.422,431.047,264,434.625,264,439.046z"/></svg>