<svg xmlns="http://www.w3.org/2000/svg" viewBox="0 0 512 512"><path d="M226.945 140.298v1.637c-33.21 11.084-54.077 39.516-52.479 72.441 1.082 22.315 11.815 40.743 31.04 53.293 12.05 7.866 27.09 13.197 45.978 16.298 23.398 3.84 33.938 9.921 34.171 19.717.188 7.885-14.652 11.774-22.526 12.729-15.483 1.878-33.868-3.007-37.625-18.18-3.843-15.517-19.588-25.035-35.094-21.221-7.539 1.854-13.901 6.537-17.916 13.185-4.006 6.635-5.185 14.427-3.32 21.941 4.843 19.507 16.376 35.794 33.354 47.101 7.364 4.905 15.555 8.71 24.419 11.353v1.11c0 16.017 13.031 29.048 29.049 29.048 16.017 0 29.048-13.032 29.048-29.05v-.504c12.226-3.228 23.269-8.437 32.23-15.237 19.631-14.895 28.824-36.419 25.885-60.606-2.766-22.772-14.48-40.544-34.821-52.825-12.44-7.511-27.534-12.535-47.5-15.813-18.786-3.085-28.086-8.025-28.43-15.104-.564-11.651 14.02-15.184 16.948-15.773 12.411-2.499 27.635 1.435 33.687 15.855 6.196 14.765 23.249 21.735 38.017 15.545 7.131-2.991 12.679-8.603 15.622-15.801 2.944-7.199 2.917-15.09-.076-22.221-9.727-23.17-27.901-39.884-51.562-47.603v-1.316c0-16.017-13.031-29.048-29.048-29.048-16.019.001-29.051 13.032-29.051 29.049zm42.097 0v7.328a8 8 0 0 0 6.042 7.757c21.613 5.455 38.222 19.67 46.767 40.027 1.339 3.188 1.346 6.73.02 9.972-1.325 3.242-3.813 5.765-7.002 7.103-6.633 2.781-14.291-.352-17.074-6.983-8.271-19.711-29.008-29.899-51.598-25.348-18.851 3.795-30.536 16.448-29.771 32.233 1.137 23.438 31.756 28.465 41.818 30.118 17.892 2.937 31.182 7.297 41.822 13.721 16.136 9.742 25.036 23.171 27.208 41.057 2.224 18.306-4.763 34.618-19.674 45.931-8.595 6.522-19.707 11.29-32.135 13.788a8 8 0 0 0-6.424 7.843v6.856c0 7.196-5.854 13.05-13.048 13.05-7.195 0-13.049-5.854-13.049-13.048v-7.272a8 8 0 0 0-6.21-7.797c-9.376-2.153-17.902-5.756-25.34-10.71-13.6-9.057-22.83-22.073-26.693-37.639a12.868 12.868 0 0 1 1.488-9.817 12.94 12.94 0 0 1 8.04-5.917 12.945 12.945 0 0 1 3.098-.377c5.843 0 11.176 3.979 12.644 9.907 6.098 24.616 32.83 32.919 55.084 30.217 17.972-2.18 37.022-10.941 36.595-28.993-.654-27.426-34.743-33.02-47.575-35.126-16.647-2.733-29.674-7.282-39.823-13.907-14.961-9.767-22.97-23.45-23.806-40.671-1.335-27.516 16.922-50.264 46.512-57.954a8.002 8.002 0 0 0 5.987-7.743v-7.606c0-7.195 5.854-13.048 13.049-13.048 7.194 0 13.048 5.854 13.048 13.048zm197.611-69.821L258.553.418a8.007 8.007 0 0 0-5.105 0L45.347 70.477a8 8 0 0 0-5.447 7.582v173.943c0 126.603 90.247 235.887 214.587 259.854a8.03 8.03 0 0 0 3.028 0c124.34-23.967 214.587-133.251 214.587-259.854V78.059a8.003 8.003 0 0 0-5.449-7.582zm-10.552 181.524c0 118.433-84.061 220.736-200.101 243.847C139.96 472.737 55.899 370.434 55.899 252.001V83.807L256 16.441l200.101 67.366v168.194zM253.447 39.458 82.347 97.06a8 8 0 0 0-5.447 7.582v147.359c0 51.245 17.741 101.665 49.954 141.97 32.193 40.28 77.431 68.703 127.377 80.031a8.004 8.004 0 0 0 3.54 0c49.946-11.329 95.184-39.751 127.377-80.031 32.213-40.305 49.954-90.725 49.954-141.97V104.642a8 8 0 0 0-5.447-7.582L258.553 39.458a8.01 8.01 0 0 0-5.106 0zm165.654 70.932v141.611c0 97.323-68.479 183.657-163.101 205.988-94.621-22.33-163.101-108.665-163.101-205.988V110.39L256 55.481l163.101 54.909z"/></svg>