<svg xmlns="http://www.w3.org/2000/svg" width="81" height="89" style=""><rect id="backgroundrect" width="100%" height="100%" x="0" y="0" fill="none" stroke="none" class="" style=""/><g class="currentLayer" style=""><title>Layer 1</title><path fill="#e6a329" d="M79.67859634113313,1.1455503430302447 H1.1165963411331177 l7.365,78.62808964580297 l31.912,8.910599363744259 l31.912,-8.910599363744259 z" data-name="Path 275" id="svg_1" class=""/><path fill="#f1bf22" d="M40.393596341133104,6.273239400863648 v75.643 l25.856,-7.325 l6.29,-68.318 z" data-name="Path 276" id="svg_2" class=""/><path fill="#fff" d="M60.963596341133126,16.071239400863647 H21.208596341133102 l-2.769,29.9 l0.05700000000000008,-0.18600000000000028 h33.774 l-1.1,12.651 l-10.776,3.1 l-10.935,-3.15 l-0.6550000000000011,-7.657 h-9.926 l1.416,15.3 l20.1,5.706 l20.109,-5.706 l2.769,-30.032 H27.42859634113313 l0.46,-10.006 h24.869 l0.3720000000000005,5.7330000000000005 h10.01 z" data-name="Path 277" id="svg_3" class=""/><path fill="#ebebeb" d="M40.40259634113312,16.071239400863647 H21.208596341133102 l-2.769,29.9 l0.05700000000000008,-0.18600000000000028 h21.905 v-9.754 H28.826596341133126 l0.46,-10.006 h11.116 zM28.826596341133126,50.73423940086364 h-9.949 l1.416,15.292 l20.1,5.7 V61.550239400863646 l-10.935,-3.158 z" data-name="Path 278" id="svg_4" class=""/></g></svg>